<mxfile host="app.diagrams.net" modified="2023-06-19T21:46:27.638Z" agent="Mozilla/5.0 (Windows NT 10.0; Win64; x64) AppleWebKit/537.36 (KHTML, like Gecko) Chrome/114.0.0.0 Safari/537.36 Edg/114.0.1823.51" etag="pjTvGq9XTPmGnNjfF3VA" version="21.5.0" type="device">
  <diagram name="Page-1" id="e3a06f82-3646-2815-327d-82caf3d4e204">
    <mxGraphModel dx="2100" dy="1162" grid="1" gridSize="10" guides="1" tooltips="1" connect="1" arrows="1" fold="1" page="1" pageScale="1.5" pageWidth="1169" pageHeight="826" background="none" math="0" shadow="0">
      <root>
        <mxCell id="0" style=";html=1;" />
        <mxCell id="1" style=";html=1;" parent="0" />
        <mxCell id="6a7d8f32e03d9370-36" style="edgeStyle=none;rounded=0;html=1;startSize=10;endSize=10;jettySize=auto;orthogonalLoop=1;fontSize=14;endArrow=classic;endFill=1;strokeWidth=2;align=center;startArrow=classic;startFill=1;" parent="1" source="6a7d8f32e03d9370-1" target="O8T-6oCFXDdEWKkJBk39-4" edge="1">
          <mxGeometry relative="1" as="geometry">
            <mxPoint x="985.6999999999998" y="948.1868905742144" as="targetPoint" />
          </mxGeometry>
        </mxCell>
        <mxCell id="6a7d8f32e03d9370-1" value="Client" style="verticalLabelPosition=bottom;aspect=fixed;html=1;verticalAlign=top;strokeColor=none;shape=mxgraph.citrix.laptop_2;fillColor=#66B2FF;gradientColor=#0066CC;fontSize=14;align=center;" parent="1" vertex="1">
          <mxGeometry x="490.4999999999999" y="790" width="116" height="86.5" as="geometry" />
        </mxCell>
        <mxCell id="6a7d8f32e03d9370-34" style="edgeStyle=none;rounded=0;html=1;startSize=10;endSize=10;jettySize=auto;orthogonalLoop=1;fontSize=14;endArrow=classic;endFill=1;strokeWidth=2;startArrow=classic;startFill=1;align=center;" parent="1" source="6a7d8f32e03d9370-3" edge="1">
          <mxGeometry relative="1" as="geometry">
            <mxPoint x="668" y="636" as="targetPoint" />
          </mxGeometry>
        </mxCell>
        <mxCell id="6a7d8f32e03d9370-3" value="client n" style="verticalLabelPosition=bottom;aspect=fixed;html=1;verticalAlign=top;strokeColor=none;shape=mxgraph.citrix.desktop;fillColor=#66B2FF;gradientColor=#0066CC;fontSize=14;align=center;" parent="1" vertex="1">
          <mxGeometry x="503.99999999999994" y="587" width="89" height="98" as="geometry" />
        </mxCell>
        <mxCell id="6a7d8f32e03d9370-32" style="edgeStyle=none;rounded=0;html=1;startSize=10;endSize=10;jettySize=auto;orthogonalLoop=1;fontSize=14;endArrow=classic;endFill=1;strokeWidth=2;startArrow=classic;startFill=1;align=center;" parent="1" source="6a7d8f32e03d9370-5" edge="1">
          <mxGeometry relative="1" as="geometry">
            <mxPoint x="672" y="275.6" as="targetPoint" />
          </mxGeometry>
        </mxCell>
        <mxCell id="6a7d8f32e03d9370-5" value="Client 1" style="verticalLabelPosition=bottom;aspect=fixed;html=1;verticalAlign=top;strokeColor=none;shape=mxgraph.citrix.desktop;fillColor=#66B2FF;gradientColor=#0066CC;fontSize=14;align=center;" parent="1" vertex="1">
          <mxGeometry x="504.00000000000006" y="226.60000000000005" width="89" height="98" as="geometry" />
        </mxCell>
        <mxCell id="6a7d8f32e03d9370-37" style="edgeStyle=none;rounded=0;html=1;startSize=10;endSize=10;jettySize=auto;orthogonalLoop=1;fontSize=14;endArrow=classic;endFill=1;strokeWidth=2;align=center;startArrow=classic;startFill=1;" parent="1" source="6a7d8f32e03d9370-6" target="O8T-6oCFXDdEWKkJBk39-4" edge="1">
          <mxGeometry relative="1" as="geometry">
            <mxPoint x="985.6999999999998" y="958.5" as="targetPoint" />
          </mxGeometry>
        </mxCell>
        <mxCell id="6a7d8f32e03d9370-6" value="Client" style="verticalLabelPosition=bottom;aspect=fixed;html=1;verticalAlign=top;strokeColor=none;shape=mxgraph.citrix.pda;fillColor=#66B2FF;gradientColor=#0066CC;fontSize=14;align=center;" parent="1" vertex="1">
          <mxGeometry x="533.5" y="928" width="30" height="61" as="geometry" />
        </mxCell>
        <mxCell id="6a7d8f32e03d9370-15" value="" style="verticalLabelPosition=top;aspect=fixed;html=1;verticalAlign=bottom;strokeColor=none;shape=mxgraph.citrix.cache_server;fillColor=#66B2FF;gradientColor=#0066CC;fontSize=14;labelPosition=center;align=center;" parent="1" vertex="1">
          <mxGeometry x="970" y="420.5" width="71" height="97.5" as="geometry" />
        </mxCell>
        <mxCell id="6a7d8f32e03d9370-44" style="edgeStyle=none;rounded=0;html=1;startSize=10;endSize=10;jettySize=auto;orthogonalLoop=1;fontSize=14;endArrow=classic;endFill=1;strokeWidth=2;startArrow=classic;startFill=1;align=center;" parent="1" source="iMxQ3XrpaTDAHy0bpkPg-1" target="6a7d8f32e03d9370-15" edge="1">
          <mxGeometry relative="1" as="geometry">
            <mxPoint x="820.053072625698" y="249" as="sourcePoint" />
            <mxPoint x="983.5537691490972" y="587" as="targetPoint" />
          </mxGeometry>
        </mxCell>
        <mxCell id="6a7d8f32e03d9370-46" style="edgeStyle=none;rounded=0;html=1;startSize=10;endSize=10;jettySize=auto;orthogonalLoop=1;fontSize=14;endArrow=classicThin;endFill=1;strokeWidth=2;startArrow=classic;startFill=1;align=center;" parent="1" source="iMxQ3XrpaTDAHy0bpkPg-2" target="6a7d8f32e03d9370-15" edge="1">
          <mxGeometry relative="1" as="geometry">
            <mxPoint x="834" y="544.2408088235297" as="sourcePoint" />
            <mxPoint x="973" y="607.9769429216376" as="targetPoint" />
          </mxGeometry>
        </mxCell>
        <mxCell id="iMxQ3XrpaTDAHy0bpkPg-1" value="" style="pointerEvents=1;shadow=0;dashed=0;html=1;strokeColor=none;fillColor=#4495D1;labelPosition=center;verticalLabelPosition=bottom;verticalAlign=top;align=center;outlineConnect=0;shape=mxgraph.veeam.2d.proxy;" parent="1" vertex="1">
          <mxGeometry x="672" y="253.20000000000002" width="44.8" height="44.8" as="geometry" />
        </mxCell>
        <mxCell id="iMxQ3XrpaTDAHy0bpkPg-2" value="" style="pointerEvents=1;shadow=0;dashed=0;html=1;strokeColor=none;fillColor=#4495D1;labelPosition=center;verticalLabelPosition=bottom;verticalAlign=top;align=center;outlineConnect=0;shape=mxgraph.veeam.2d.proxy;" parent="1" vertex="1">
          <mxGeometry x="668" y="613.6" width="44.8" height="44.8" as="geometry" />
        </mxCell>
        <mxCell id="iMxQ3XrpaTDAHy0bpkPg-8" value="&lt;span style=&quot;color: rgb(0, 0, 0); font-family: Helvetica; font-size: 14px; font-style: normal; font-variant-ligatures: normal; font-variant-caps: normal; font-weight: 400; letter-spacing: normal; orphans: 2; text-indent: 0px; text-transform: none; widows: 2; word-spacing: 0px; -webkit-text-stroke-width: 0px; background-color: rgb(251, 251, 251); text-decoration-thickness: initial; text-decoration-style: initial; text-decoration-color: initial; float: none; display: inline !important;&quot;&gt;Proxy&lt;/span&gt;" style="text;whiteSpace=wrap;html=1;align=center;" parent="1" vertex="1">
          <mxGeometry x="655.4" y="658.4" width="70" height="40" as="geometry" />
        </mxCell>
        <mxCell id="iMxQ3XrpaTDAHy0bpkPg-10" value="&lt;span style=&quot;color: rgb(0, 0, 0); font-family: Helvetica; font-size: 14px; font-style: normal; font-variant-ligatures: normal; font-variant-caps: normal; font-weight: 400; letter-spacing: normal; orphans: 2; text-indent: 0px; text-transform: none; widows: 2; word-spacing: 0px; -webkit-text-stroke-width: 0px; background-color: rgb(251, 251, 251); text-decoration-thickness: initial; text-decoration-style: initial; text-decoration-color: initial; float: none; display: inline !important;&quot;&gt;Proxy&lt;/span&gt;" style="text;whiteSpace=wrap;html=1;align=center;" parent="1" vertex="1">
          <mxGeometry x="659.4" y="298" width="70" height="40" as="geometry" />
        </mxCell>
        <mxCell id="O8T-6oCFXDdEWKkJBk39-1" value="&lt;span style=&quot;color: rgb(0, 0, 0); font-family: Helvetica; font-style: normal; font-variant-ligatures: normal; font-variant-caps: normal; font-weight: 400; letter-spacing: normal; orphans: 2; text-indent: 0px; text-transform: none; widows: 2; word-spacing: 0px; -webkit-text-stroke-width: 0px; background-color: rgb(251, 251, 251); text-decoration-thickness: initial; text-decoration-style: initial; text-decoration-color: initial; float: none; display: inline !important;&quot;&gt;&lt;font style=&quot;font-size: 14px;&quot;&gt;HTTP Server Deployed on AWS&lt;/font&gt;&lt;/span&gt;" style="text;whiteSpace=wrap;html=1;align=center;" parent="1" vertex="1">
          <mxGeometry x="933.5" y="509.5" width="180" height="40" as="geometry" />
        </mxCell>
        <mxCell id="O8T-6oCFXDdEWKkJBk39-2" value="client" style="verticalLabelPosition=bottom;aspect=fixed;html=1;verticalAlign=top;strokeColor=none;shape=mxgraph.citrix.desktop;fillColor=#66B2FF;gradientColor=#0066CC;fontSize=14;align=center;" parent="1" vertex="1">
          <mxGeometry x="504.00000000000006" y="1055" width="89" height="98" as="geometry" />
        </mxCell>
        <mxCell id="O8T-6oCFXDdEWKkJBk39-3" style="edgeStyle=none;rounded=0;html=1;startSize=10;endSize=10;jettySize=auto;orthogonalLoop=1;fontSize=14;endArrow=classic;endFill=1;strokeWidth=2;align=center;startArrow=classic;startFill=1;" parent="1" source="O8T-6oCFXDdEWKkJBk39-2" target="O8T-6oCFXDdEWKkJBk39-4" edge="1">
          <mxGeometry relative="1" as="geometry">
            <mxPoint x="730" y="1040" as="sourcePoint" />
            <mxPoint x="985.6999999999998" y="971.629446621549" as="targetPoint" />
          </mxGeometry>
        </mxCell>
        <mxCell id="O8T-6oCFXDdEWKkJBk39-4" value="" style="image;aspect=fixed;html=1;points=[];align=center;fontSize=12;image=img/lib/azure2/general/Website_Power.svg;" parent="1" vertex="1">
          <mxGeometry x="1010" y="928" width="68" height="68" as="geometry" />
        </mxCell>
        <mxCell id="O8T-6oCFXDdEWKkJBk39-5" value="&lt;span style=&quot;color: rgb(0, 0, 0); font-family: Helvetica; font-size: 14px; font-style: normal; font-variant-ligatures: normal; font-variant-caps: normal; font-weight: 400; letter-spacing: normal; orphans: 2; text-indent: 0px; text-transform: none; widows: 2; word-spacing: 0px; -webkit-text-stroke-width: 0px; background-color: rgb(251, 251, 251); text-decoration-thickness: initial; text-decoration-style: initial; text-decoration-color: initial; float: none; display: inline !important;&quot;&gt;React Website Deployed on GitHub&lt;/span&gt;" style="text;whiteSpace=wrap;html=1;align=center;" parent="1" vertex="1">
          <mxGeometry x="930" y="996" width="252" height="40" as="geometry" />
        </mxCell>
        <mxCell id="O8T-6oCFXDdEWKkJBk39-6" value="" style="image;aspect=fixed;perimeter=ellipsePerimeter;html=1;align=center;shadow=0;dashed=0;spacingTop=3;image=img/lib/active_directory/web_server.svg;" parent="1" vertex="1">
          <mxGeometry x="1240" y="919" width="68.8" height="86" as="geometry" />
        </mxCell>
        <mxCell id="O8T-6oCFXDdEWKkJBk39-8" value="&lt;span style=&quot;color: rgb(0, 0, 0); font-family: Helvetica; font-size: 14px; font-style: normal; font-variant-ligatures: normal; font-variant-caps: normal; font-weight: 400; letter-spacing: normal; orphans: 2; text-indent: 0px; text-transform: none; widows: 2; word-spacing: 0px; -webkit-text-stroke-width: 0px; background-color: rgb(251, 251, 251); text-decoration-thickness: initial; text-decoration-style: initial; text-decoration-color: initial; float: none; display: inline !important;&quot;&gt;Node.js Web Server Deployed on Render&lt;/span&gt;" style="text;whiteSpace=wrap;html=1;align=center;" parent="1" vertex="1">
          <mxGeometry x="1170" y="996" width="252" height="40" as="geometry" />
        </mxCell>
        <mxCell id="O8T-6oCFXDdEWKkJBk39-9" style="edgeStyle=none;rounded=0;html=1;startSize=10;endSize=10;jettySize=auto;orthogonalLoop=1;fontSize=14;endArrow=classic;endFill=1;strokeWidth=2;align=center;startArrow=classic;startFill=1;" parent="1" source="O8T-6oCFXDdEWKkJBk39-4" target="O8T-6oCFXDdEWKkJBk39-6" edge="1">
          <mxGeometry relative="1" as="geometry">
            <mxPoint x="930" y="892" as="sourcePoint" />
            <mxPoint x="1320" y="996" as="targetPoint" />
          </mxGeometry>
        </mxCell>
        <mxCell id="O8T-6oCFXDdEWKkJBk39-10" value="" style="image;aspect=fixed;perimeter=ellipsePerimeter;html=1;align=center;shadow=0;dashed=0;spacingTop=3;image=img/lib/active_directory/database_server.svg;" parent="1" vertex="1">
          <mxGeometry x="1490" y="580" width="108.24" height="132" as="geometry" />
        </mxCell>
        <mxCell id="O8T-6oCFXDdEWKkJBk39-11" value="&lt;span style=&quot;color: rgb(0, 0, 0); font-family: Helvetica; font-size: 14px; font-style: normal; font-variant-ligatures: normal; font-variant-caps: normal; font-weight: 400; letter-spacing: normal; orphans: 2; text-indent: 0px; text-transform: none; widows: 2; word-spacing: 0px; -webkit-text-stroke-width: 0px; background-color: rgb(251, 251, 251); text-decoration-thickness: initial; text-decoration-style: initial; text-decoration-color: initial; float: none; display: inline !important;&quot;&gt;MongoDB Database Server&lt;/span&gt;" style="text;whiteSpace=wrap;html=1;align=center;" parent="1" vertex="1">
          <mxGeometry x="1440" y="710" width="252" height="40" as="geometry" />
        </mxCell>
        <mxCell id="O8T-6oCFXDdEWKkJBk39-12" style="edgeStyle=none;rounded=0;html=1;startSize=10;endSize=10;jettySize=auto;orthogonalLoop=1;fontSize=14;endArrow=classic;endFill=1;strokeWidth=2;startArrow=none;startFill=0;align=center;entryX=0;entryY=0.5;entryDx=0;entryDy=0;" parent="1" source="6a7d8f32e03d9370-15" target="O8T-6oCFXDdEWKkJBk39-10" edge="1">
          <mxGeometry relative="1" as="geometry">
            <mxPoint x="723" y="634" as="sourcePoint" />
            <mxPoint x="980" y="498" as="targetPoint" />
          </mxGeometry>
        </mxCell>
        <mxCell id="O8T-6oCFXDdEWKkJBk39-13" style="edgeStyle=none;rounded=0;html=1;startSize=10;endSize=10;jettySize=auto;orthogonalLoop=1;fontSize=14;endArrow=none;endFill=0;strokeWidth=2;startArrow=classic;startFill=1;align=center;entryX=0;entryY=0.75;entryDx=0;entryDy=0;" parent="1" source="O8T-6oCFXDdEWKkJBk39-6" target="O8T-6oCFXDdEWKkJBk39-10" edge="1">
          <mxGeometry relative="1" as="geometry">
            <mxPoint x="1240" y="940" as="sourcePoint" />
            <mxPoint x="1692" y="1115" as="targetPoint" />
          </mxGeometry>
        </mxCell>
        <mxCell id="UGiH_vNChaK2vVtDsIE1-2" value="" style="endArrow=none;dashed=1;html=1;rounded=0;" edge="1" parent="1">
          <mxGeometry width="50" height="50" relative="1" as="geometry">
            <mxPoint x="548" y="560" as="sourcePoint" />
            <mxPoint x="548" y="350" as="targetPoint" />
          </mxGeometry>
        </mxCell>
      </root>
    </mxGraphModel>
  </diagram>
</mxfile>
